<?xml version="1.0" standalone="no"?>
<!DOCTYPE svg PUBLIC "-//W3C//DTD SVG 20010904//EN"
 "http://www.w3.org/TR/2001/REC-SVG-20010904/DTD/svg10.dtd">
<svg version="1.0" xmlns="http://www.w3.org/2000/svg"
 width="512.000000pt" height="512.000000pt" viewBox="0 0 512.000000 512.000000"
 preserveAspectRatio="xMidYMid meet">
<metadata>
Created by potrace 1.14, written by Peter Selinger 2001-2017
</metadata>
<g transform="translate(0.000000,512.000000) scale(0.100000,-0.100000)"
fill="#000000" stroke="none">
<path d="M80 5102 c-19 -9 -45 -32 -57 -51 l-23 -34 3 -2463 2 -2463 21 -28
c11 -15 36 -36 55 -45 32 -17 171 -18 2484 -18 2354 0 2452 1 2484 18 19 10
43 34 53 53 17 32 18 130 18 2489 0 2359 -1 2457 -18 2489 -10 19 -34 43 -53
53 -32 17 -130 18 -2484 18 -2313 0 -2452 -1 -2485 -18z"/>
</g>
</svg>
